<?xml version="1.0" standalone="no"?>
<!DOCTYPE svg PUBLIC "-//W3C//DTD SVG 20010904//EN"
 "http://www.w3.org/TR/2001/REC-SVG-20010904/DTD/svg10.dtd">
<svg version="1.0" xmlns="http://www.w3.org/2000/svg"
 width="512.000000pt" height="512.000000pt" viewBox="0 0 512.000000 512.000000"
 preserveAspectRatio="xMidYMid meet">
<metadata>
Created by potrace 1.14, written by Peter Selinger 2001-2017
</metadata>
<g transform="translate(0.000000,512.000000) scale(0.100000,-0.100000)"
fill="#000000" stroke="none">
<path d="M2335 5049 c-397 -42 -726 -149 -1050 -343 -83 -50 -187 -118 -230
-153 -5 -5 -32 -26 -60 -48 -391 -312 -691 -763 -831 -1248 -42 -146 -82 -355
-91 -480 -17 -225 -4 -493 32 -667 3 -14 8 -38 11 -55 35 -196 130 -461 241
-668 45 -85 136 -234 166 -272 4 -5 27 -35 50 -65 111 -146 270 -312 401 -419
327 -267 717 -451 1113 -526 168 -32 258 -40 463 -40 167 0 301 7 370 20 14 2
52 9 85 14 131 22 353 83 440 120 11 5 56 24 100 42 283 118 563 307 789 535
120 120 280 322 352 444 21 36 44 74 51 85 7 11 39 74 72 140 123 250 207 532
235 793 3 28 9 76 12 105 8 67 8 327 0 392 -3 28 -8 73 -11 100 -3 28 -7 61
-10 75 -2 14 -7 42 -9 62 -43 297 -193 671 -388 960 -374 559 -954 940 -1623
1067 -184 35 -499 49 -680 30z m551 -1178 c18 -1 35 -36 118 -243 122 -303
355 -887 448 -1118 38 -96 76 -188 83 -205 21 -49 336 -835 361 -900 12 -33
31 -81 43 -107 l20 -48 -29 -1 c-134 -3 -761 -1 -765 3 -3 2 -35 94 -73 204
-37 109 -70 204 -74 209 -6 10 -924 14 -931 4 -3 -4 -75 -214 -82 -239 -3 -8
-17 -52 -32 -97 -26 -79 -29 -83 -58 -84 -115 -3 -737 0 -741 3 -2 3 16 54 40
114 24 60 87 222 141 359 54 138 104 264 111 280 7 17 44 111 83 210 214 551
253 652 262 670 5 11 56 142 115 290 58 149 127 326 154 395 27 69 64 163 83
210 l33 85 210 5 c172 4 338 4 480 1z"/>
<path d="M2546 3032 c-3 -6 -30 -79 -60 -164 -29 -84 -91 -258 -136 -386 -45
-128 -80 -235 -77 -238 5 -5 558 -6 563 -1 2 2 -46 142 -107 313 -61 170 -124
347 -140 393 -32 92 -34 97 -43 83z"/>
</g>
</svg>
